<svg xmlns="http://www.w3.org/2000/svg" width="1921.281" height="517.65" viewBox="0 0 1921.281 517.65"><path d="M-670.27,393.16c0,37.58-21.12,68.11-47.18,68.11s-47.22-30.53-47.22-68.11,21.13-68.1,47.22-68.1S-670.27,355.55-670.27,393.16Z" transform="translate(817 -100.87)" fill="#386330"/><path d="M-748.52,417.62-724.2,445l-5.52,41.07h21l-3.67-42.54,27.61-18.47-29.47,7.38-2.23-25.72L-694.6,385l-22.9,9.49L-722,341.6l-1.22,54.26-20.45-12.19,20.91,22.39-.29,26.74Z" transform="translate(817 -100.87)" fill="#2b2100"/><path d="M-624,448.63a21.39,21.39,0,0,1-5.12,2.52,21.809,21.809,0,0,1-5.71,1.06,20.71,20.71,0,0,1-10.29-2.15,22.07,22.07,0,0,1-7.75-6.48,21.579,21.579,0,0,1-3.9-9,18.68,18.68,0,0,1,.77-9.52h0a17,17,0,0,1,5.53-7.76,18.27,18.27,0,0,1,4.65-2.59,19.229,19.229,0,0,1,4.92-1.13,24.44,24.44,0,0,1,6.45.2,34.811,34.811,0,0,1,6.09,1.61,33,33,0,0,0-11.24,1.74,17.369,17.369,0,0,0-6.66,4.14,13.4,13.4,0,0,0-3.08,5.53,14.819,14.819,0,0,0-.13,6.39,17.809,17.809,0,0,0,2.63,6.46,20.74,20.74,0,0,0,5.29,5.4h0a20.89,20.89,0,0,0,7.65,3.35,27,27,0,0,0,9.94.24Z" transform="translate(817 -100.87)" fill="#bee55e" fill-rule="evenodd"/><path d="M-625.22,394.13a22.119,22.119,0,0,1-4.76-3.07,19.661,19.661,0,0,1-3.89-4.3,20.751,20.751,0,0,1-3.49-9.91,21.35,21.35,0,0,1,7.14-18,18.9,18.9,0,0,1,8.47-4.34h0a16.94,16.94,0,0,1,9.53.72,18.2,18.2,0,0,1,4.61,2.59,23.5,23.5,0,0,1,3.56,3.63,25.8,25.8,0,0,1,3.17,5.6,35.282,35.282,0,0,1,1.78,6,33.45,33.45,0,0,0-7.31-8.72,17.52,17.52,0,0,0-7-3.47,12.38,12.38,0,0,0-6.28.24,13.839,13.839,0,0,0-5.54,3.17,18.069,18.069,0,0,0-4.13,5.64,20.1,20.1,0,0,0-1.88,7.31h0a21.92,21.92,0,0,0,1.13,8.27,26.591,26.591,0,0,0,5,8.64Z" transform="translate(817 -100.87)" fill="#bee55e" fill-rule="evenodd"/><path d="M-607.15,390.71a22.266,22.266,0,0,1,4-4,20.412,20.412,0,0,1,5-2.94,21.41,21.41,0,0,1,10.42-1.37,21.82,21.82,0,0,1,9.46,3.56,21,21,0,0,1,6.66,7.17,18.589,18.589,0,0,1,2.49,9.23h0a17,17,0,0,1-2.63,9.16,18.817,18.817,0,0,1-3.55,4,19.851,19.851,0,0,1-4.27,2.7,23.35,23.35,0,0,1-6.15,2,35.788,35.788,0,0,1-6.28.51,33.432,33.432,0,0,0,10-5.36,17.43,17.43,0,0,0,4.89-6.15A12.91,12.91,0,0,0-576,403a14.861,14.861,0,0,0-2-6.08,18.07,18.07,0,0,0-4.65-5.2,19.8,19.8,0,0,0-6.76-3.34h0a21,21,0,0,0-8.34-.62,26.52,26.52,0,0,0-9.46,3Z" transform="translate(817 -100.87)" fill="#bee55e" fill-rule="evenodd"/><path d="M-579.82,420.06a22.908,22.908,0,0,1,5.26,2.15,20.73,20.73,0,0,1,9.89,12.62,21.49,21.49,0,0,1-3.73,19,19.4,19.4,0,0,1-7.53,5.8h0a17.12,17.12,0,0,1-9.49,1,17.6,17.6,0,0,1-5-1.7,21.74,21.74,0,0,1-4.14-2.91,24.771,24.771,0,0,1-4.13-5,33.712,33.712,0,0,1-2.87-5.61,33,33,0,0,0,8.78,7.21,17.12,17.12,0,0,0,7.55,2.18,13.14,13.14,0,0,0,6.15-1.4,14.311,14.311,0,0,0,4.85-4.17,17.73,17.73,0,0,0,3-6.25,20,20,0,0,0,.51-7.55h0a21.471,21.471,0,0,0-2.63-7.93,27,27,0,0,0-6.42-7.57Z" transform="translate(817 -100.87)" fill="#bee55e" fill-rule="evenodd"/><path d="M-632.67,410.33a13.69,13.69,0,0,1-3,.79,12.451,12.451,0,0,1-3.11,0A11.51,11.51,0,0,1-644,408.9a11.56,11.56,0,0,1-4.54-9.36,10.06,10.06,0,0,1,1.33-5h0a9.1,9.1,0,0,1,3.73-3.52,9,9,0,0,1,2.73-.89,10.182,10.182,0,0,1,2.7-.11,14.5,14.5,0,0,1,3.38.75,20.8,20.8,0,0,1,3.07,1.51,17.369,17.369,0,0,0-6.14-.24,9.57,9.57,0,0,0-3.93,1.5,7.15,7.15,0,0,0-2.19,2.6,7.819,7.819,0,0,0-.72,3.36,9.119,9.119,0,0,0,.72,3.68,10.13,10.13,0,0,0,2.2,3.38h0a10.889,10.889,0,0,0,3.69,2.56,14.411,14.411,0,0,0,5.22,1.16Z" transform="translate(817 -100.87)" fill="#bee55e" fill-rule="evenodd"/><path d="M-588,380.94a8.139,8.139,0,0,0,2.19-1.13,8.771,8.771,0,0,0,1.88-1.67A9,9,0,0,0-582,374a9.37,9.37,0,0,0-.2-4.37,9.358,9.358,0,0,0-2.09-3.69,8.13,8.13,0,0,0-3.48-2.22h0a7.38,7.38,0,0,0-6.22.83,8.282,8.282,0,0,0-1.67,1.39,9.57,9.57,0,0,0-1.61,2.29,13.288,13.288,0,0,0-1.06,2.53,14.77,14.77,0,0,1,3.56-3.45,7.09,7.09,0,0,1,3.17-1.2,5.34,5.34,0,0,1,2.7.39,6.521,6.521,0,0,1,2.23,1.56,8.741,8.741,0,0,1,1.53,2.6,9.232,9.232,0,0,1,.48,3.25h0a8.7,8.7,0,0,1-.85,3.48,10.82,10.82,0,0,1-2.5,3.52Z" transform="translate(817 -100.87)" fill="#bee55e" fill-rule="evenodd"/><path d="M-609.41,413.91l18.21-18-19.09,7.89-3.8-44.11-1,45.24-17-10.18,17.42,18.66-.24,22.31L-636.12,423l20.26,22.82-4.62,34.2H-603l-3-35.47,23-15.41-24.56,6.19Z" transform="translate(817 -100.87)" fill="#2b2100"/><path d="M968.47,474.44a12.871,12.871,0,0,1-3.09,1.52,13.48,13.48,0,0,1-3.44.64,12.39,12.39,0,0,1-6.19-1.3,13.21,13.21,0,0,1-4.68-3.91,12.711,12.711,0,0,1-2.34-5.44,11.17,11.17,0,0,1,.43-5.73h0a10.07,10.07,0,0,1,3.33-4.67A10.462,10.462,0,0,1,955.3,454a11.1,11.1,0,0,1,3-.68,14.162,14.162,0,0,1,3.9.12,19.368,19.368,0,0,1,3.66,1,19.49,19.49,0,0,0-6.77,1.05,10.581,10.581,0,0,0-4,2.49,8.359,8.359,0,0,0-1.86,3.34,9.089,9.089,0,0,0-.07,3.85,10.9,10.9,0,0,0,1.59,3.9,12.929,12.929,0,0,0,3.14,3.25h0a12.859,12.859,0,0,0,4.61,2,16.52,16.52,0,0,0,6,.14Z" transform="translate(817 -100.87)" fill="#bee55e" fill-rule="evenodd"/><path d="M967.73,441.63a13.643,13.643,0,0,1-2.88-1.86,12.349,12.349,0,0,1-2.36-2.59,12.68,12.68,0,0,1-2.09-6,13.081,13.081,0,0,1,.89-6,12.78,12.78,0,0,1,3.41-4.84,11.511,11.511,0,0,1,5.11-2.62h0a10.13,10.13,0,0,1,5.74.44,10.56,10.56,0,0,1,2.78,1.56,12.437,12.437,0,0,1,2.1,2.19,15,15,0,0,1,1.92,3.37,23.074,23.074,0,0,1,1,3.65,19.518,19.518,0,0,0-4.41-5.25,10.531,10.531,0,0,0-4.2-2.1,7.57,7.57,0,0,0-3.78.15,8.351,8.351,0,0,0-3.34,1.92,10.63,10.63,0,0,0-2.5,3.4,12,12,0,0,0-1.13,4.41h0a13.34,13.34,0,0,0,.74,4.93,16.22,16.22,0,0,0,3,5.25Z" transform="translate(817 -100.87)" fill="#bee55e" fill-rule="evenodd"/><path d="M978.62,439.53a13.255,13.255,0,0,1,2.41-2.44,12.926,12.926,0,0,1,3-1.77,12.78,12.78,0,0,1,6.3-.82,13.05,13.05,0,0,1,5.71,2.1,12.58,12.58,0,0,1,4,4.32,11.421,11.421,0,0,1,1.51,5.56h0A10.34,10.34,0,0,1,1000,452a11.278,11.278,0,0,1-2.1,2.42,12.1,12.1,0,0,1-2.58,1.63,14.5,14.5,0,0,1-3.7,1.17,21.846,21.846,0,0,1-3.79.3,19.62,19.62,0,0,0,6-3.23,10.52,10.52,0,0,0,3-3.7,7.45,7.45,0,0,0,.65-3.75,9.159,9.159,0,0,0-1.18-3.67,11.259,11.259,0,0,0-2.8-3.15,12.062,12.062,0,0,0-4.09-2h0a12.881,12.881,0,0,0-5-.36,16.15,16.15,0,0,0-5.7,1.83Z" transform="translate(817 -100.87)" fill="#bee55e" fill-rule="evenodd"/><path d="M995.1,457.2a12.931,12.931,0,0,1,3.15,1.3,12.27,12.27,0,0,1,5.93,7.58,13.059,13.059,0,0,1,.22,6.12,12.852,12.852,0,0,1-2.47,5.35,11.811,11.811,0,0,1-4.55,3.52h0a10.31,10.31,0,0,1-8.75-.42,12.647,12.647,0,0,1-2.49-1.74,14.879,14.879,0,0,1-2.49-3,20.316,20.316,0,0,1-1.73-3.38,20,20,0,0,0,5.25,4.35,10.371,10.371,0,0,0,4.55,1.32,8,8,0,0,0,3.71-.85,8.779,8.779,0,0,0,2.91-2.51,10.43,10.43,0,0,0,1.84-3.77,12.46,12.46,0,0,0,.32-4.55h0a13.119,13.119,0,0,0-1.6-4.78,16.149,16.149,0,0,0-3.86-4.57Z" transform="translate(817 -100.87)" fill="#bee55e" fill-rule="evenodd"/><path d="M963.22,451.34a7.5,7.5,0,0,1-1.8.49,7,7,0,0,1-7.11-3.88,7.1,7.1,0,0,1-.67-3.14,6,6,0,0,1,.79-3h0a5.59,5.59,0,0,1,2.25-2.09,5.328,5.328,0,0,1,1.65-.54,6.28,6.28,0,0,1,1.62-.05,7.449,7.449,0,0,1,2,.45,10.629,10.629,0,0,1,1.86.9,10.752,10.752,0,0,0-3.71-.14,5.739,5.739,0,0,0-2.37.91,4.32,4.32,0,0,0-1.32,1.56,5,5,0,0,0-.43,2,5.46,5.46,0,0,0,.43,2.22,6.329,6.329,0,0,0,1.36,2.1h0A7,7,0,0,0,960,450.7a8.75,8.75,0,0,0,3.15.7Z" transform="translate(817 -100.87)" fill="#bee55e" fill-rule="evenodd"/><path d="M990.18,433.63a5.228,5.228,0,0,0,1.31-.67,5.385,5.385,0,0,0,1.13-1,5.581,5.581,0,0,0,1.16-2.5,5.64,5.64,0,0,0-1.38-4.86,4.86,4.86,0,0,0-2.1-1.34h0a4.36,4.36,0,0,0-2.48-.07,5.1,5.1,0,0,0-1.26.56,5.431,5.431,0,0,0-1,.85,5.82,5.82,0,0,0-1,1.38,7.38,7.38,0,0,0-.64,1.53,9.1,9.1,0,0,1,2.1-2.1,4.31,4.31,0,0,1,1.92-.71,3,3,0,0,1,1.63.22,3.71,3.71,0,0,1,1.35,1,5.139,5.139,0,0,1,.93,1.58,5.56,5.56,0,0,1,.29,1.95h0a5.49,5.49,0,0,1-.51,2.1,6.79,6.79,0,0,1-1.5,2.1Z" transform="translate(817 -100.87)" fill="#bee55e" fill-rule="evenodd"/><path d="M977.26,453.52l11-10.89-11.52,4.77-2.28-26.6-.6,27.27-10.28-6.13,10.51,11.24-.15,13.45L961.15,459l12.22,13.75-2.78,20.61h10.54L979.3,472l13.88-9.29-14.81,3.73Z" transform="translate(817 -100.87)" fill="#2b2100"/><path d="M-353.33,450.84a34.812,34.812,0,0,0,33.582-25.617A29.32,29.32,0,0,0-297.52,390.23,29.46,29.46,0,0,0-304.38,377a22.381,22.381,0,0,0,.63-5.29,23.37,23.37,0,0,0-22.458-23.35A29.24,29.24,0,0,0-338.445,329.6,29.24,29.24,0,0,0-360.37,325a29.25,29.25,0,0,0-15,7.83c13.39.61,24,12.73,24,27.52a32.317,32.317,0,0,1-.7,6.29,37.23,37.23,0,0,1,.92,45.29l34.87-8.73-39.46,26.43,1.83,21.16C-353.67,450.81-353.52,450.84-353.33,450.84Z" transform="translate(817 -100.87)" fill="#386330"/><path d="M-374.18,441.86l1.28-9.48a41.361,41.361,0,0,1-4.61,6.66,34.463,34.463,0,0,0,3.33,2.82Z" transform="translate(817 -100.87)" fill="#386330"/><path d="M-495.81,405.06c-10.12-4-17.4-14.56-17.4-27.08,0-12.7,7.5-23.42,17.9-27.22v-4l.66,3.75c.53-.17,1.06-.35,1.61-.49a29.68,29.68,0,0,1,4.75-22.48,29.06,29.06,0,0,0-15.35,11,23.14,23.14,0,0,0-32.21,5.81A23.09,23.09,0,0,0-540,357.68h0a20.079,20.079,0,0,0,.47,4.71,24.16,24.16,0,0,0-18.07,29,24.12,24.12,0,0,0,15.44,17.29,24.63,24.63,0,0,0,8.78,33.7,24.63,24.63,0,0,0,28.65-2.7,34.762,34.762,0,0,0,5.71,5.4l1.62-12-34.6-39,33.1,19.73a31.69,31.69,0,0,1,3.07-8.74Z" transform="translate(817 -100.87)" fill="#386330"/><path d="M-472.88,448.84a23.491,23.491,0,0,1-6.25-.85l.34,4h.56A34.414,34.414,0,0,0-456,443.847c.466-.4.936-.8,1.386-1.217a9.818,9.818,0,0,1-.81-1,24.669,24.669,0,0,1-2.07,1.76A24.9,24.9,0,0,1-472.88,448.84Z" transform="translate(817 -100.87)" fill="#386330"/><path d="M-359.67,404.36a31.41,31.41,0,0,0-4.15-36.44,26.618,26.618,0,0,0,.7-5.7,25.09,25.09,0,0,0-7-17.42,4.014,4.014,0,0,0-.3-.28,25.05,25.05,0,0,0-16.81-7.39,31.728,31.728,0,0,0-1.89-6.2,31.57,31.57,0,0,0-23.14-18.87,31.18,31.18,0,0,0-17,1.41,30.511,30.511,0,0,0-4.91,2.39,31.69,31.69,0,0,0-9.76,8.89,25.21,25.21,0,0,0-9.61-4c-.86-.16-1.73-.29-2.6-.37-.66,0-1.32-.08-2-.08a25.21,25.21,0,0,0-25.09,25.15,23.739,23.739,0,0,0,.53,5.12,26.27,26.27,0,0,0-11,5.49,20.228,20.228,0,0,0-1.73,1.6,26.11,26.11,0,0,0,.23,36.92,26.18,26.18,0,0,0,9.32,5.92l.3.11c-.08.14-.13.29-.21.42a26.53,26.53,0,0,0,10.19,36.11,26.45,26.45,0,0,0,11.41,3.33c.51,0,1,.08,1.55.08A26.31,26.31,0,0,0-450,437.27c.77-.42,1.52-.88,2.24-1.37a26.278,26.278,0,0,0,2.59-2,36.46,36.46,0,0,0,6.22,5.88l1.75-13-2-2.22-12-13.48-2.92-3.28-.05-.06-20.45-23,25.23,15,3.6,2.14,10.23,6.1.05-6.93.06-8.1.28-35.64.19-23.73,6,34.32,2.6,14.84,2.62,14.91.9,5.07.18,1,.65,3.72,3.76-.95,7.44-1.87,13-3.28,6-1.5,15.18-3.78-7.17,4.8-3,2-6.06,4.06-26.27,17.54.28,3.28,1.69,19.51h.59a37.56,37.56,0,0,0,10.68-1.57,39.218,39.218,0,0,0,6.5-2.61c.46-.24.9-.48,1.35-.74a37.4,37.4,0,0,0,17.1-20.5c.13-.4.26-.8.38-1.21s.18-.54.26-.82c1-.22,2-.5,3-.81A31.61,31.61,0,0,0-359.67,404.36Z" transform="translate(817 -100.87)" fill="#386330"/><path d="M-495.28,346.73v4l.69-.23Z" transform="translate(817 -100.87)" fill="#2b2200"/><path d="M899.52,430.06a33.29,33.29,0,1,1-9.729-23.568,33.3,33.3,0,0,1,9.729,23.568Z" transform="translate(817 -100.87)" fill="#386330"/><path d="M925.87,393.94a33.3,33.3,0,1,1-33.31-33.29h0a33.28,33.28,0,0,1,33.28,33.28h0Z" transform="translate(817 -100.87)" fill="#386330"/><path d="M949.46,430.06a33.29,33.29,0,1,1-9.729-23.568A33.3,33.3,0,0,1,949.46,430.06Z" transform="translate(817 -100.87)" fill="#386330"/><path d="M895.4,436.16l-8.68-49.22-.38,49.61-26-15.53,24.91,28-5.66,42h21.47l-3.79-43.48,28.27-18.93Z" transform="translate(817 -100.87)" fill="#2b2100"/><path d="M610.41,377.83A20,20,0,0,0,594,386.3a15.88,15.88,0,0,0-25,13.14,16.2,16.2,0,0,0,.31,3.25,16.59,16.59,0,0,0-1.78,31.81,16.87,16.87,0,0,0,25.68,21.21,23.77,23.77,0,0,0,41.19-9,20,20,0,0,0,10.53-33,15.91,15.91,0,0,0-11.8-19.16h0a15.907,15.907,0,0,0-3.14-.42,20,20,0,0,0-19.68-16.3Z" transform="translate(817 -100.87)" fill="#386330"/><path d="M593.05,487h19.14l-3.34-38.81L634,431.34l-26.87,6.72-7.73-43.85-.34,44.19L575.9,424.59l22.18,25Z" transform="translate(817 -100.87)" fill="#2b2100"/><path d="M-351.13,412a31.09,31.09,0,0,1-17.54,11.7,42.5,42.5,0,0,1-4.27,10.72l-1.28,9.49-6.27,46.51h30l-3.41-39.56-1.77-21.17,39.46-26.43Z" transform="translate(817 -100.87)" fill="#2b2100"/><path d="M-479.13,447c-11.65-3.1-20.34-14.62-20.34-28.37a29.2,29.2,0,0,1,.62-5.82L-532,393.06l34.57,38.9L-499,444l-6.24,46.35h29.86l-3.41-39.39Z" transform="translate(817 -99.87)" fill="#2b2100"/><path d="M-391.73,399.9l-6,1.51-13,3.28-7.45,1.87-3.76.95-.65-3.71-.18-1-.89-5.07-2.62-14.91L-428.85,368l-6-34.32-.18,23.73-.28,35.64-.06,8.1-.06,6.93-10.23-6.1-3.59-2.14-25.23-15,20.44,23,.05.06,2.92,3.28,12,13.48,2,2.22-1.76,13-.22,1.64-1.6,11.92-4.92,36.5h32.24l-3-35.1-.44-5-.21-2.45-1.68-19.51-.28-3.28,26.24-17.58,6.06-4.06,2.95-2,7.17-4.8Z" transform="translate(817 -100.87)" fill="#2b2100"/><path d="M-222.43,384.93c1.61-4.83,2.72-10.16,1.21-15a15,15,0,0,0-6.94-8.2,44.051,44.051,0,0,0-11.68-4.13h0c-4.38-1.06-8.76-1.86-13.08-3a12.52,12.52,0,0,1,2.76,4.53,29.791,29.791,0,0,1,1.46,5.64c.66,3.93.91,8,2,11.78a14.481,14.481,0,0,0,2.31,4.93h0a10.29,10.29,0,0,0,4.23,3.47,16.66,16.66,0,0,0,7,1.36A44.71,44.71,0,0,0-222.49,385Z" transform="translate(817 -100.87)" fill="#386330" fill-rule="evenodd"/><path d="M-254.9,485.44c.14-.08.11-.23-.12-.54a10,10,0,0,1-1.63-4.25,2.061,2.061,0,0,0-.11-.61h-3.42l-.08.69a11.541,11.541,0,0,0,0,3.52,3.92,3.92,0,0,0,.5,1.55c.21,1.39,4.78,1.61,4.81-.31Zm1.76-6.53c1.14-.28,1.54-.75,1.41-1.61a4.81,4.81,0,0,0-1.77-2.69,7.83,7.83,0,0,0-4.24-1.9,8.641,8.641,0,0,0-2.87.23c-2.18.61-4,2.18-4.16,3.71a1.77,1.77,0,0,0,.31,1.23,4.12,4.12,0,0,0,2.64,1.11,40,40,0,0,0,8.68-.08Zm-.9-1.57a6.64,6.64,0,0,0-1-1.9,6.81,6.81,0,0,0-2.24-1.86c-.11,0-.19-.1-.18-.12a6.391,6.391,0,0,1,1.59.69,7,7,0,0,1,2.54,2.44,7.728,7.728,0,0,1,.53,1.08,2.338,2.338,0,0,1-.69.13h-.39l-.16-.49Z" transform="translate(817 -100.87)" fill="#2b2100"/><path d="M-270.27,485.61c.12-.08.1-.2-.1-.47a8.58,8.58,0,0,1-1.4-3.65,3.51,3.51,0,0,0-.1-.53h-2.93l-.08.6a10.061,10.061,0,0,0,0,3,3.26,3.26,0,0,0,.43,1.33c.18,1.19,4.1,1.39,4.13-.27Zm1.52-5.61c1-.23,1.32-.64,1.21-1.39a4.34,4.34,0,0,0-1.52-2.32,6.64,6.64,0,0,0-3.65-1.62,7.589,7.589,0,0,0-2.47.19c-1.87.52-3.39,1.88-3.57,3.19a1.47,1.47,0,0,0,.27,1.06,3.51,3.51,0,0,0,2.26,1,33.933,33.933,0,0,0,7.47-.07Zm-.77-1.35a5.55,5.55,0,0,0-2.79-3.24c-.1,0-.17-.08-.16-.1a6.158,6.158,0,0,1,1.37.59,6.09,6.09,0,0,1,2.19,2.09,5.781,5.781,0,0,1,.45.94,1.579,1.579,0,0,1-.6.1h-.33l-.13-.42Z" transform="translate(817 -100.87)" fill="#2b2100"/><path d="M-201,431.19c-1.56-4.73-2.62-9.81-1.21-14.55a14.42,14.42,0,0,1,6.74-7.89,39.891,39.891,0,0,1,11.32-4c4.23-1.06,8.51-1.83,12.68-2.92a11.76,11.76,0,0,0-2.71,4.42,27.2,27.2,0,0,0-1.36,5.38c-.65,3.84-.91,7.71-2,11.43a14.911,14.911,0,0,1-2.22,4.78h0a10.16,10.16,0,0,1-4.12,3.37h0a17.26,17.26,0,0,1-6.8,1.31A43.161,43.161,0,0,1-201,431.21Z" transform="translate(817 -100.87)" fill="#386330" fill-rule="evenodd"/><path d="M-203,388.26c-2.67-3.58-5-7.6-5.29-12a13.46,13.46,0,0,1,2.87-8.86,36.36,36.36,0,0,1,7.7-7h0c3-2.21,6.09-4.28,9.06-6.54-1.26,3-.86,6.49-.25,9.66.6,3.47,1.61,6.9,1.86,10.37h0a15.34,15.34,0,0,1-.31,4.78h0a9.88,9.88,0,0,1-2.21,4.18,14.67,14.67,0,0,1-5,3.26,37.388,37.388,0,0,1-8.43,2.15Z" transform="translate(817 -100.87)" fill="#386330" fill-rule="evenodd"/><path d="M-238.67,448.3c.35-3.92.25-8.1-1.61-11.62a12.32,12.32,0,0,0-6.34-5.39,33.321,33.321,0,0,0-9.16-1.76h0c-3.32-.3-6.64-.35-9.91-.71,2.31,1.72,3.62,4.49,4.73,7.25a78.271,78.271,0,0,0,3.42,8.76h0a13.421,13.421,0,0,0,2.46,3.47h0a8,8,0,0,0,3.63,2.12h0a11.851,11.851,0,0,0,5.33.2,29.561,29.561,0,0,0,7.45-2.32Z" transform="translate(817 -100.87)" fill="#386330" fill-rule="evenodd"/><path d="M-192.59,454.8c1.21-3.58,2.87-7.15,5.84-9.47a11.36,11.36,0,0,1,7.6-2.21,30.34,30.34,0,0,1,8.6,2c3,1,5.89,2.22,8.91,3.18-2.72.6-4.93,2.51-6.9,4.48a83.607,83.607,0,0,1-6.34,6.29h0a12.65,12.65,0,0,1-3.47,2h0a7.8,7.8,0,0,1-4,.45,11.57,11.57,0,0,1-4.63-1.83,27.41,27.41,0,0,1-5.59-4.88Z" transform="translate(817 -100.87)" fill="#386330" fill-rule="evenodd"/><path d="M-230,450.77a11.76,11.76,0,0,0-6.84.61,7.22,7.22,0,0,0-3.37,3.57,18.931,18.931,0,0,0-1.31,5.28h0c-.25,2-.4,3.88-.7,5.84a9.21,9.21,0,0,1,4.37-2.56c1.76-.61,3.58-1,5.24-1.77h0a7.851,7.851,0,0,0,2.11-1.36h0a5.16,5.16,0,0,0,1.36-2.05c.85-2.47,0-5.14-.86-7.55Z" transform="translate(817 -100.87)" fill="#386330" fill-rule="evenodd"/><path d="M-222.78,420.47c-1.06-3.83-2.62-7.64-5.59-10.22a12.14,12.14,0,0,0-7.8-2.77,31.589,31.589,0,0,0-9.1,1.56h0c-3.17,1-6.29,2-9.51,2.87,2.81.76,5,2.92,6.94,5,2.11,2.31,4,4.83,6.29,6.94h0a12.549,12.549,0,0,0,3.57,2.41h0a9,9,0,0,0,4.13.7h0a12.26,12.26,0,0,0,5-1.71,29.9,29.9,0,0,0,6.14-4.78Z" transform="translate(817 -100.87)" fill="#386330" fill-rule="evenodd"/><path d="M-221,357.2c1.76-3.47,3.22-7.4,2.82-11.28a12.15,12.15,0,0,0-3.82-7.34,32.251,32.251,0,0,0-7.74-5h0c-2.92-1.46-6-2.82-8.91-4.33,1.56,2.47,1.71,5.5,1.71,8.41A81.231,81.231,0,0,0-237,347h0a12.87,12.87,0,0,0,1,4.14h0a9.27,9.27,0,0,0,2.57,3.32h0a12.911,12.911,0,0,0,4.83,2.11,31,31,0,0,0,7.75.66Z" transform="translate(817 -100.87)" fill="#386330" fill-rule="evenodd"/><path d="M-241.6,398.78a13.41,13.41,0,0,0-2-7.5,7.93,7.93,0,0,0-4.63-3.08,21.468,21.468,0,0,0-6.14-.4h0c-2.22,0-4.43.31-6.64.31a10.38,10.38,0,0,1,3.72,4.42h0a56,56,0,0,0,3,5.49h0a9.11,9.11,0,0,0,1.87,2h0a4.881,4.881,0,0,0,2.57,1.11c2.92.45,5.73-1,8.25-2.41Z" transform="translate(817 -100.87)" fill="#386330" fill-rule="evenodd"/><path d="M-184.54,393.59a14,14,0,0,1,2-7.5,8,8,0,0,1,4.64-3,23.312,23.312,0,0,1,6.18-.45h0c2.17.11,4.38.3,6.6.36a10.43,10.43,0,0,0-3.73,4.38h0a46.36,46.36,0,0,1-3,5.49h0a7.84,7.84,0,0,1-1.91,2.11,6,6,0,0,1-2.52,1.09C-179.15,396.51-182,395.06-184.54,393.59Z" transform="translate(817 -100.87)" fill="#386330" fill-rule="evenodd"/><path d="M-199.67,461.19a13.51,13.51,0,0,1,7.6-1.7,7.79,7.79,0,0,1,4.83,2.67,21,21,0,0,1,3.27,5.23h0c1,2,1.81,4,2.82,6a10.27,10.27,0,0,0-5.64-1.21h0c-2.06,0-4.18.15-6.24-.05a9.1,9.1,0,0,1-2.77-.7,5.7,5.7,0,0,1-2.16-1.76c-1.76-2.37-1.81-5.54-1.71-8.46Z" transform="translate(817 -100.87)" fill="#386330" fill-rule="evenodd"/><path d="M-209.19,359.41c-1.26-2.36-2.27-4.92-2-7.55a8.12,8.12,0,0,1,2.52-4.92,19.65,19.65,0,0,1,5.13-3.42h0c2-1.06,4-2,5.89-3a10.16,10.16,0,0,0-1,5.64h0c.05,2.11.3,4.17.15,6.24h0a10.25,10.25,0,0,1-.6,2.77h0a6,6,0,0,1-1.71,2.26c-2.27,1.81-5.44,2-8.35,2Z" transform="translate(817 -100.87)" fill="#386330" fill-rule="evenodd"/><path d="M-214.93,343.26c-1.31-2.27-2.47-4.78-2.32-7.45a7.73,7.73,0,0,1,2.27-5,21.39,21.39,0,0,1,5-3.75h0c1.86-1.11,3.88-2.11,5.74-3.27a10.29,10.29,0,0,0-.76,5.69h0c.15,2.11.51,4.17.46,6.24a11.38,11.38,0,0,1-.51,2.83h0a6.6,6.6,0,0,1-1.56,2.31c-2.21,1.91-5.38,2.27-8.3,2.36Z" transform="translate(817 -100.87)" fill="#386330" fill-rule="evenodd"/><path d="M-244.37,424.8l26.16,29.49-5.93,44.2h22.59l-4-45.81,29.74-19.88-31.75,7.95-2.36-27.67,23.5-23.31L-211,400l-4.88-57-1.31,58.38-22-13.14,22.49,24.11-.35,28.79Z" transform="translate(817 -100.87)" fill="#2b2100"/><path d="M-110.72,382.28l-35.18,44.91L-110.72,416l35.15,11.17Z" transform="translate(817 -100.87)" fill="#386330"/><path d="M-110.72,398.5l-45.92,59.43,45.92-15.41,45.88,15.41Z" transform="translate(817 -100.87)" fill="#386330"/><path d="M-110.72,422.83l-53.22,66.34,53.22-15.33,53.18,15.33Z" transform="translate(817 -100.87)" fill="#386330"/><path d="M-.66,384.29l-35.18,44.95L-.66,418l35.19,11.23Z" transform="translate(817 -100.87)" fill="#386330"/><path d="M-.66,400.5l-45.92,59.44L-.66,444.58l45.92,15.36Z" transform="translate(817 -100.87)" fill="#386330"/><path d="M-.66,424.83l-53.22,66.34L-.66,475.84l53.23,15.33Z" transform="translate(817 -100.87)" fill="#386330"/><rect width="12.34" height="34.62" transform="translate(700.08 363.12)" fill="#2b2100"/><rect width="12.29" height="34.66" transform="translate(810.19 365.13)" fill="#2b2100"/><path d="M-3.91,451.12l-34-44.07,21,6.69L-59.76,359l-42.81,54.71,21-6.68-34.06,44.06,29.56-9.89-38.42,47.89,64.76-18.62L5,489.12l-38.42-47.89Z" transform="translate(817 -100.87)" fill="#bee55e"/><rect width="14.97" height="42.15" transform="translate(749.74 357.64)" fill="#2b2100"/><path d="M497.33,392.4a55.389,55.389,0,0,0,3-13.76,28.761,28.761,0,0,0-1-10.44,21.881,21.881,0,0,0-4.3-7.71h0a26.74,26.74,0,0,0-6.9-5.48h0c-5.81-3.36-12.33-5.16-18.86-6.72-7-1.7-14.18-3-21.12-4.87a21.64,21.64,0,0,1,4.49,7.38,45.93,45.93,0,0,1,2.31,9h0c1.09,6.33,1.51,12.86,3.31,19a24.871,24.871,0,0,0,3.69,7.95h0a18.11,18.11,0,0,0,6.85,5.63h0a28.271,28.271,0,0,0,11.34,2.17,73.49,73.49,0,0,0,17.21-2.22Z" transform="translate(817 -100.87)" fill="#bee55e" fill-rule="evenodd"/><path d="M515.2,407.44a72.759,72.759,0,0,1-11.87-13.86A36.42,36.42,0,0,1,498,381.06a27.209,27.209,0,0,1,.14-11.4h0a34.58,34.58,0,0,1,4.45-10.6c4.53-7.42,10.87-13.57,17.34-19.38,7-6.29,14.28-12.15,21.08-18.63a27,27,0,0,0-.56,11.21,59.135,59.135,0,0,0,3,11.72h0c1.37,4,2.93,7.94,4.4,11.91a96,96,0,0,1,3.64,11.82,34.429,34.429,0,0,1,.71,11.4h0a23.28,23.28,0,0,1-4.35,10.63h0a36.57,36.57,0,0,1-11.58,9.55,97.292,97.292,0,0,1-21,8.14Z" transform="translate(817 -100.87)" fill="#bee55e" fill-rule="evenodd"/><path d="M499.33,447.3a80.32,80.32,0,0,1,1-19.71,43.131,43.131,0,0,1,5-14,31.831,31.831,0,0,1,8.27-9.4h0a37.459,37.459,0,0,1,10.91-5.68h0c8.61-3,17.77-3.78,26.9-4.2,9.69-.43,19.47-.34,29.16-1a32.808,32.808,0,0,0-8.46,8.88A73.64,73.64,0,0,0,566,414c-3.64,8.42-6.47,17.21-11,25.2h0a38.34,38.34,0,0,1-7.61,9.93h0A24.72,24.72,0,0,1,536.48,455a36.81,36.81,0,0,1-15.5,0,92.777,92.777,0,0,1-21.6-7.61Z" transform="translate(817 -100.87)" fill="#bee55e" fill-rule="evenodd"/><path d="M503.72,449.18a93.912,93.912,0,0,0,3-22.64,46.9,46.9,0,0,0-2.93-16.74h0a34.67,34.67,0,0,0-7.94-11.91,43.73,43.73,0,0,0-11.81-8,79.858,79.858,0,0,0-14.8-5.16h0c-5.43-1.42-11-2.46-16.59-3.35-11.58-1.8-23.25-3-34.78-5.11a34.291,34.291,0,0,1,8.22,11.3A80.87,80.87,0,0,1,431,401.9h0c1.28,5.16,2.32,10.36,3.5,15.51a117.564,117.564,0,0,0,4.25,14.85,41,41,0,0,0,7,12.43h0a27.9,27.9,0,0,0,11.81,8.18h0c5.91,2.17,12.34,2.51,18.62,2.08,9.41-.62,18.58-2.93,27.56-5.77Z" transform="translate(817 -100.87)" fill="#bee55e" fill-rule="evenodd"/><path d="M525.93,399.92a21.25,21.25,0,1,1-21.27-21.23h0a21.23,21.23,0,0,1,21.27,21.23Z" transform="translate(817 -100.87)" fill="#bee55e"/><path d="M505.79,432.78l-8.55-48.6-.38,49-29.54-12.43,28.41,24.77L490.15,487h21.22l-3.69-43,27.89-18.68Z" transform="translate(817 -100.87)" fill="#2b2100"/><path d="M357.59,479.92h4.81v7.14h4.88v-7.14h8.58v7.14h4.88v-7.14h4.81v-5.59h-28Z" transform="translate(817 -100.87)" fill="#2b2100"/><path d="M425,365.78a20.74,20.74,0,1,1-20.76-20.72h0A20.75,20.75,0,0,1,425,365.78Z" transform="translate(817 -100.87)" fill="#386330"/><path d="M445,428.41a37.91,37.91,0,1,1-37.93-37.89A37.91,37.91,0,0,1,445,428.41Z" transform="translate(817 -100.87)" fill="#386330"/><path d="M436.24,396.5a29.14,29.14,0,1,1-29.16-29.12h0a29.13,29.13,0,0,1,29.16,29.06h0Z" transform="translate(817 -100.87)" fill="#386330"/><path d="M409.35,442.42,407.52,421l18.18-18-19.06,7.9-3.75-44-1,45.16-17-10.14,17.39,18.64L402,442.7l-21.17-12.61,20.26,22.78-4.63,34.19H414l-3.07-35.43,23-15.39Z" transform="translate(817 -100.87)" fill="#2b2100"/><path d="M780.64,423.39a37.914,37.914,0,0,0,2-9.13,19.27,19.27,0,0,0-.67-6.92,13.641,13.641,0,0,0-2.84-5.06h0a18.271,18.271,0,0,0-4.55-3.66,46.21,46.21,0,0,0-12.5-4.42c-4.65-1.14-9.35-2-14-3.23a14.279,14.279,0,0,1,3,4.87,29,29,0,0,1,1.51,6h0c.73,4.2,1,8.5,2.21,12.6a17.369,17.369,0,0,0,2.43,5.28h0a11.71,11.71,0,0,0,4.55,3.7h0a18.3,18.3,0,0,0,7.52,1.45,49,49,0,0,0,11.37-1.45Z" transform="translate(817 -100.87)" fill="#bee55e" fill-rule="evenodd"/><path d="M798.51,428.8a38.089,38.089,0,0,1-2-9.14,18.451,18.451,0,0,1,.63-6.89,14.37,14.37,0,0,1,2.84-5.09h0a17.728,17.728,0,0,1,4.58-3.63A46.828,46.828,0,0,1,817,399.6h0c4.64-1.11,9.34-2,14-3.19a13.841,13.841,0,0,0-3,4.86,32,32,0,0,0-1.52,6c-.73,4.2-1,8.5-2.18,12.58a16.629,16.629,0,0,1-2.42,5.21,11.211,11.211,0,0,1-4.52,3.7h0a18.49,18.49,0,0,1-7.52,1.45h0a47.31,47.31,0,0,1-11.37-1.45Z" transform="translate(817 -100.87)" fill="#bee55e" fill-rule="evenodd"/><path d="M795.48,403.06c-2.52-3.63-4.7-7.74-4.8-12.16a13.711,13.711,0,0,1,3.22-8.78,37,37,0,0,1,7.93-6.73h0c3.1-2.09,6.29-4,9.32-6.16-1.36,3-1.11,6.41-.63,9.63.47,3.48,1.32,6.92,1.45,10.44h0a15.669,15.669,0,0,1-.47,4.77,10.2,10.2,0,0,1-2.41,4.08,13.59,13.59,0,0,1-5,3.09h0a33.449,33.449,0,0,1-8.56,1.83Z" transform="translate(817 -100.87)" fill="#bee55e" fill-rule="evenodd"/><path d="M771.57,441.8c-3.47-2.71-7.45-5.15-11.87-5.49a13.38,13.38,0,0,0-8.91,2.68,37.071,37.071,0,0,0-7.23,7.52h0c-2.24,2.94-4.36,6-6.7,8.91,3.07-1.14,6.48-.7,9.67,0,3.44.69,6.82,1.73,10.33,2h0a14.7,14.7,0,0,0,4.77-.19,9.74,9.74,0,0,0,4.23-2.12h0a14.311,14.311,0,0,0,3.38-4.89h0a33.669,33.669,0,0,0,2.33-8.44Z" transform="translate(817 -100.87)" fill="#bee55e" fill-rule="evenodd"/><path d="M802.72,446.55c4.13-1.61,8.62-2.78,12.94-1.9a13.63,13.63,0,0,1,7.81,5.15,38,38,0,0,1,4.76,9.25h0c1.33,3.48,2.44,7,3.86,10.49-2.59-2-6-2.53-9.26-2.84-3.47-.29-7-.26-10.45-.95a14.1,14.1,0,0,1-4.55-1.55h0a9.82,9.82,0,0,1-3.41-3.25h0a13.669,13.669,0,0,1-1.86-5.66A34.554,34.554,0,0,1,802.72,446.55Z" transform="translate(817 -100.87)" fill="#bee55e" fill-rule="evenodd"/><path d="M824.7,431.06c.91-3.28,2.27-6.63,4.86-8.88a10.53,10.53,0,0,1,6.82-2.43,28,28,0,0,1,8,1.4c2.75.79,5.47,1.73,8.28,2.47-2.47.69-4.36,2.56-6.07,4.42q-2.6,3.13-5.49,6h0a12.818,12.818,0,0,1-3.07,2.09h0a8.07,8.07,0,0,1-3.6.6h0a10.909,10.909,0,0,1-4.41-1.46,25.514,25.514,0,0,1-5.33-4.2Z" transform="translate(817 -100.87)" fill="#bee55e" fill-rule="evenodd"/><path d="M757.49,427.84c-.92-3.29-2.28-6.63-4.87-8.91a10.73,10.73,0,0,0-6.82-2.4,28.361,28.361,0,0,0-7.92,1.36h0c-2.78.82-5.5,1.77-8.31,2.49,2.46.7,4.36,2.53,6.06,4.43a69.452,69.452,0,0,0,5.5,6h0a10.53,10.53,0,0,0,3.06,2.05h0a7.4,7.4,0,0,0,3.6.64h0a11.139,11.139,0,0,0,4.36-1.49,26.369,26.369,0,0,0,5.34-4.2Z" transform="translate(817 -100.87)" fill="#bee55e" fill-rule="evenodd"/><path d="M782.5,396.06c1.55-3.07,2.81-6.45,2.47-9.86a10.86,10.86,0,0,0-3.38-6.41,29.829,29.829,0,0,0-6.76-4.39c-2.59-1.3-5.21-2.44-7.77-3.79,1.32,2.14,1.48,4.83,1.45,7.36a73.911,73.911,0,0,0-.09,8.15h0a11.732,11.732,0,0,0,.88,3.6h0a7.23,7.23,0,0,0,2.21,2.91h0a11,11,0,0,0,4.2,1.87,26.211,26.211,0,0,0,6.79.57Z" transform="translate(817 -100.87)" fill="#bee55e" fill-rule="evenodd"/><path d="M752.43,411.25a12.171,12.171,0,0,0-1.76-6.57,7.08,7.08,0,0,0-4-2.65,19.38,19.38,0,0,0-5.37-.38h0c-1.92.1-3.85.28-5.77.32a8.889,8.889,0,0,1,3.22,3.83h0a54.175,54.175,0,0,0,2.62,4.79h0a7.28,7.28,0,0,0,1.67,1.83,5,5,0,0,0,2.24.95c2.5.41,5-.82,7.2-2.12Z" transform="translate(817 -100.87)" fill="#bee55e" fill-rule="evenodd"/><path d="M828.71,415.24a12.179,12.179,0,0,1,1.73-6.58,7,7,0,0,1,4-2.64,19.569,19.569,0,0,1,5.4-.39h0c1.93.11,3.85.29,5.78.33a9.1,9.1,0,0,0-3.26,3.82h0c-.78,1.64-1.65,3.24-2.59,4.8h0a8.261,8.261,0,0,1-1.67,1.82h0a5.1,5.1,0,0,1-2.24,1c-2.53.41-5-.82-7.2-2.12Z" transform="translate(817 -100.87)" fill="#bee55e" fill-rule="evenodd"/><path d="M822.74,438.55a12.1,12.1,0,0,1,6.59-1.49,7.17,7.17,0,0,1,4.26,2.34,19.4,19.4,0,0,1,2.85,4.58h0c.82,1.74,1.54,3.54,2.43,5.24a9.48,9.48,0,0,0-4.9-1.07h0a45.193,45.193,0,0,1-5.46-.06h0a6.89,6.89,0,0,1-2.4-.6,4.94,4.94,0,0,1-1.9-1.55c-1.54-2-1.61-4.8-1.48-7.36Z" transform="translate(817 -100.87)" fill="#bee55e" fill-rule="evenodd"/><path d="M814.33,394.42a11.75,11.75,0,0,1,.57-6.76,6.9,6.9,0,0,1,3.5-3.32,18.669,18.669,0,0,1,5.21-1.28h0c1.93-.25,3.86-.41,5.75-.73a9,9,0,0,0-2.49,4.36,46.527,46.527,0,0,1-1.74,5.15A6.67,6.67,0,0,1,823.8,394a5.24,5.24,0,0,1-2,1.36c-2.4.82-5.08,0-7.45-.85Z" transform="translate(817 -100.87)" fill="#bee55e" fill-rule="evenodd"/><path d="M775.4,449.64a12.17,12.17,0,0,0-5.25,4.29,7,7,0,0,0-.75,4.77,18.848,18.848,0,0,0,1.86,5.09h0c.88,1.71,1.83,3.38,2.65,5.12a9.41,9.41,0,0,1,2.15-4.52h0c1.1-1.45,2.37-2.78,3.32-4.33h0a7.762,7.762,0,0,0,1-2.26h0a4.919,4.919,0,0,0,0-2.47c-.69-2.46-2.84-4.21-4.92-5.68Z" transform="translate(817 -100.87)" fill="#bee55e" fill-rule="evenodd"/><path d="M787.36,393.47,787,439l-27.47-11.56,26.43,23L780.76,489H800.5L797,449.08l26-17.39-27.67,7Z" transform="translate(817 -100.87)" fill="#2b2100"/><path d="M175.2,352.78c-3.25-14.33,10.54-19.6,18.11-18.11-.84,11.24-3.94,20.23-18.11,18.11" transform="translate(817 -100.87)" fill="#bdd762"/><path d="M158.2,388.26c-.48-21.08,17.11-24.15,39.24-22.64-3.73,16.52-21.11,34.44-39.24,22.64" transform="translate(817 -100.87)" fill="#bdd762"/><path d="M158.6,321.06c12.18,11,6.77,43.74-12.07,42.25-14.06-14.4-.08-35.94,12.07-42.25" transform="translate(817 -100.87)" fill="#bdd762"/><path d="M155.25,401c-7.68,17.5-14.65,21.83-32.87,28.74-.62,26.28,12.18,44.66,20.52,62-3.22,5.35-14.67,1.72-23.53,1.41-17-37-11.93-107.37,15.09-134.31,1.34.67,2.7,1.35,3,3C135.84,378,121.33,394,122.33,417.68c19.72-1.41,16.18-12.22,32.87-16.67" transform="translate(817 -100.87)" fill="#2b2100"/><path d="M129.93,307.51c8.74,4.34,13.81,24.71,0,27.16-9.2-6-5.16-19.62,0-27.16" transform="translate(817 -100.87)" fill="#bdd762"/><path d="M98.24,324.11c17.23,3,34.5,21.08,22.63,39.23-19.59-1-24.58-16.66-22.63-39.23" transform="translate(817 -100.87)" fill="#bdd762"/><path d="M99.75,381.45c-11,18-37.94,3.1-42.25-12.07,14.27-7.8,41-6.13,42.25,12.08" transform="translate(817 -100.87)" fill="#bdd762"/><path d="M90.69,354.29C79,359.61,69.88,350.2,69.57,339.2c13.16-1.07,20.83,3.31,21.12,15.09" transform="translate(817 -100.87)" fill="#bdd762"/><path d="M79,397.88c3.86,11.37-15.3,16.21-22.19,12.93-1.24-8.13,14.86-20.6,22.19-12.93" transform="translate(817 -100.87)" fill="#bdd762"/><path d="M191.93,431.86c-10.64,4-31.9-1.52-30.24-18.26,11.71-8,27.32,4,30.24,18.26" transform="translate(817 -100.87)" fill="#bdd762"/><path d="M80.62,431.13c-2.36-11.1,6.23-31.3,22.54-27.19,6.19,12.77-8,26.43-22.54,27.19" transform="translate(817 -100.87)" fill="#bdd762"/><path d="M162,447.46c-9.57-.84-18-9.25-12.51-18.86,11.45-.2,12.81,8.57,12.51,18.86" transform="translate(817 -100.87)" fill="#bdd762"/><path d="M203.75,402.27c-6.07,7.45-17.78,9.76-22.64-.21,6.26-9.59,14.29-5.81,22.64.21" transform="translate(817 -100.87)" fill="#bdd762"/><path d="M-472.66,100.87a169.08,169.08,0,0,1-27.11,2.88c-14.74.34-9.4,2.56-13.14,5.76s-4.68-11.84-32.38-7.77c0,0-13.76,1.34-17.92.71,0,0,7.6,5.61,19.67,4.16s21.25,4.47,22,6.85a3.18,3.18,0,0,0-2.45,1.48s-2.79.57-2.3,2.06c0,0,3.77-.31,5.89,1.88s10.81,6.39,16.93-1.22c3.76-4.68,6.17-2.35,11.89-5.51,0,0-6.55.81-10.94-1.42C-507.58,108.16-476.42,106.05-472.66,100.87Z" transform="translate(817 -100.87)" fill="#2b2100"/><path d="M-326.49,188.66a50.189,50.189,0,0,1-8.12.6c-4.41,0-2.84.68-4,1.59s-1.28-3.58-9.6-2.63a40,40,0,0,1-5.36,0,9.7,9.7,0,0,0,6.44,2c3.63-.31,5.7.93,5.91,1.65a1,1,0,0,0-.76.42s-.83.14-.7.6a2.47,2.47,0,0,1,1.74.62,3.47,3.47,0,0,0,2.455,1.018,3.47,3.47,0,0,0,2.455-1.018h0l.16-.18c1.17-1.36,1.87-.64,3.61-1.53a7.68,7.68,0,0,1-3.74-.39C-337.47,190.64-327.66,190.18-326.49,188.66Z" transform="translate(817 -100.87)" fill="#2b2100"/><path d="M-497.84,269.83a27.792,27.792,0,0,0,4.43,1.49c2.44.6,1.47.77,2,1.45s.31-1.81,4.79-.11a15.919,15.919,0,0,0,3.87.78,11.11,11.11,0,0,1-5,0c-2-.69-2.18,0-2.4.33a.53.53,0,0,1,.36.34s.45.2.31.43a1.39,1.39,0,0,0-1,.1,2,2,0,0,1-2.73-.73l-.06-.1c-.45-.92-.94-.62-1.78-1.36a4.58,4.58,0,0,0,2.13.31C-492,272.49-497.4,270.84-497.84,269.83Z" transform="translate(817 -100.87)" fill="#2b2100"/><path d="M768.13,215.79a136.759,136.759,0,0,1-21.57-4.56c-11.43-3.43-7.87-.38-11.55,1.14s-.63-10.28-23-14.08c0,0-10.91-2.41-14-3.94,0,0,4.44,6.22,14.09,8.12s15.34,8.76,15.34,10.79a2.58,2.58,0,0,0-2.3.51s-2.28-.26-2.28,1c0,0,3,.7,4.06,2.92s6.72,7.62,13.33,3.3c4.06-2.66,5.33-.26,10.52-1.27,0,0-5.24-1-8.06-3.83C739.44,212.67,764,218.84,768.13,215.79Z" transform="translate(817 -100.87)" fill="#2b2100"/><path d="M875.18,307.24a67.785,67.785,0,0,1-10.45.77c-5.66-.06-3.63.86-5.11,2s-1.65-4.6-12.34-3.38a52.822,52.822,0,0,1-6.89.05,12.6,12.6,0,0,0,8.28,2.62c4.65-.41,7.32,1.2,7.59,2.13a1.18,1.18,0,0,0-1,.53s-1.08.19-.91.76a3.14,3.14,0,0,1,2.24.8,4.45,4.45,0,0,0,6.28,0h0l.23-.25c1.51-1.75,2.41-.83,4.64-2,0,0-3.13.41-4.8-.5C861.07,309.77,873.68,309.17,875.18,307.24Z" transform="translate(817 -100.87)" fill="#2b2100"/><path d="M814.16,330.45a39,39,0,0,0,5.68,1.9c3.15.77,1.9,1,2.56,1.86s.39-2.32,6.15-.14a20.169,20.169,0,0,0,5,1s-3.87.84-6.39,0-2.81-.05-3.08.43a.7.7,0,0,1,.46.43s.57.26.39.56a1.72,1.72,0,0,0-1.35.12,2.54,2.54,0,0,1-3.48-.9h0l-.09-.17c-.59-1.18-1.23-.79-2.3-1.75a5.94,5.94,0,0,0,2.74.41C821.63,333.86,814.72,331.74,814.16,330.45Z" transform="translate(817 -100.87)" fill="#2b2100"/><rect width="40.67" height="40.67" rx="3" transform="matrix(1, -0.005, 0.005, 1, 1060.328, 328.74)" fill="#2b2100"/><rect width="21.23" height="23.47" rx="3" transform="matrix(1, -0.005, 0.005, 1, 1093.289, 351.848)" fill="#2b2100"/><path d="M179.66,467.09l110.1-.57a4.81,4.81,0,0,1,4.84,4.78h0a4.82,4.82,0,0,1-4.79,4.84l-110.1.57a4.82,4.82,0,0,1-4.84-4.79h0a4.81,4.81,0,0,1,4.79-4.83Z" transform="translate(817 -100.87)" fill="#2b2100"/><circle cx="12.93" cy="12.93" r="12.93" transform="translate(1005.78 366.09)" fill="#2b2100"/><circle cx="12.93" cy="12.93" r="12.93" transform="translate(1072.51 365.74)" fill="#2b2100"/><path d="M-531.92,560.73c-.48-34.14,400.82-67.53,896.35-74.57s739.36,4.62,739.85,38.76S861.71,602.76,366.19,609.8-531.43,594.87-531.92,560.73Z" transform="translate(817 -100.87)" fill="#386330"/><path d="M-817,490.41S-110.72,417.3,547.19,618.28H-816" transform="translate(817 -100.87)" fill="#73976b"/><path d="M1104.28,489.82s-138.47-35.42-670.4,128.7L1104,617" transform="translate(817 -100.87)" fill="#73976b"/></svg>